# AST/ASF file generated using VICON BodyLanguage
# -----------------------------------------------
:version 1.10
:name VICON
:units
  mass 1.0
  length 0.45
  angle deg
:documentation
   .ast/.asf automatically generated from VICON data using
   VICON BodyBuilder and BodyLanguage model FoxedUp or BRILLIANT.MOD
:root
   order TX TY TZ RX RY RZ
   axis XYZ
   position 0 0 0  
   orientation 0 0 0 
:bonedata
  begin
     id 1 
     name lhipjoint
     direction 0.64773 -0.699417 0.302095 
     length 2.48597 
     axis 0 0 0  XYZ
  end
  begin
     id 2 
     name lfemur
     direction 0.34202 -0.939693 0  
     length 6.71947  
     axis 0 0 20  XYZ
    dof rx ry rz
    limits (-160.0 20.0)
           (-70.0 70.0)
           (-60.0 70.0)
  end
  begin
     id 3 
     name ltibia
     direction 0.34202 -0.939693 0   
     length 8.08777   
     axis 0 0 20   XYZ
    dof rx
    limits (-10.0 170.0)
  end
  begin
     id 4 
     name lfoot
     direction 0.0808503 -0.222134 0.971658   
     length 2.08264   
     axis -90 7.62852e-016 20   XYZ
    dof rx rz
    limits (-45.0 90.0)
           (-70.0 20.0)
  end
  begin
     id 5 
     name ltoes
     direction 1.53502e-011 -4.22007e-011 1   
     length 1.04662   
     axis -90 7.62852e-016 20   XYZ
    dof rx
    limits (-90.0 20.0)
  end
  begin
     id 6 
     name rhipjoint
     direction -0.610924 -0.726792 0.313919   
     length 2.39233  
     axis 0 0 0  XYZ 
  end
  begin
     id 7 
     name rfemur
     direction -0.34202 -0.939693 0   
     length 6.96955   
     axis 0 0 -20   XYZ
    dof rx ry rz
    limits (-160.0 20.0)
           (-70.0 70.0)
           (-70.0 60.0)
  end
  begin
     id 8 
     name rtibia
     direction -0.34202 -0.939693 0   
     length 8.19584   
     axis 0 0 -20   XYZ
    dof rx
    limits (-10.0 170.0)
 end
 begin
     id 9 
     name rfoot
     direction -0.077777 -0.213691 0.9738   
     length 2.07539  
     axis -90 -7.62852e-016 -20   XYZ
    dof rx rz
    limits (-45.0 90.0)
           (-20.0 70.0)
  end
  begin
     id 10 
     name rtoes
     direction -1.53558e-011 -4.22006e-011 1   
     length 1.04381   
     axis -90 -7.62852e-016 -20   XYZ
    dof rx
    limits (-90.0 20.0)
  end
  begin
     id 11 
     name lowerback
     direction -0.00971646 0.996074 0.0879841   
     length 1.67643   
     axis 0 0 0   XYZ
    dof rx ry rz
    limits (-20.0 45.0)
           (-30.0 30.0)
           (-30.0 30.0)
  end
  begin
     id 12 
     name upperback
     direction 0.0127391 0.991676 0.128127   
     length 1.63741   
     axis 0 0 0   XYZ
    dof rx ry rz
    limits (-20.0 45.0)
           (-30.0 30.0)
           (-30.0 30.0)
  end
  begin
     id 13 
     name thorax
     direction 0.0167583 0.996049 0.0872067   
     length 1.65931   
     axis 0 0 0   XYZ
    dof rx ry rz
    limits (-20.0 45.0)
           (-30.0 30.0)
           (-30.0 30.0)
  end
  begin
     id 14 
     name lowerneck
     direction -0.0317829 0.998312 0.0486079   
     length 1.79021   
     axis 0 0 0   XYZ
    dof rx ry rz
    limits (-20.0 45.0)
           (-30.0 30.0)
           (-30.0 30.0)
  end
  begin
     id 15 
     name upperneck
     direction 0.0896851 0.972452 -0.215159   
     length 1.78797   
     axis 0 0 0   XYZ
    dof rx ry rz
    limits (-20.0 45.0)
           (-30.0 30.0)
           (-30.0 30.0)
  end
  begin
     id 16
     name head
     direction 0.0310949 0.996503 -0.0775582  
     length 1.81549  
     axis 0 0 0   XYZ
    dof rx ry rz
    limits (-20.0 45.0)
           (-30.0 30.0)
           (-30.0 30.0)
  end
  begin
     id 17 
     name lclavicle
     direction 0.853638 0.502051 -0.138733  
     length 3.31627  
     axis 0 0 0   XYZ
    dof ry rz
    limits (-20.0 10.0)
           (0.0 20.0)
  end
  begin
     id 18 
     name lhumerus
     direction 1 -4.48962e-011 -1.41788e-018   
     length 5.54893   
     axis 180 -30 -90   XYZ
    dof rx ry rz
    limits (-60.0 90.0)
           (-90.0 90.0)
           (-90.0 90.0)
  end
  begin
     id 19
     name lradius
     direction 1 -4.48962e-011 -4.95754e-027   
     length 3.02898   
     axis 180 -30 -90   XYZ
    dof rx
    limits (-10.0 170.0)
  end
  begin
     id 20
     name lwrist
     direction 1 -4.48952e-011 -1.03764e-026   
     length 1.51449   
     axis 9.09556e-015 90 90   XYZ
    dof ry
    limits (-180.0 0.0)
 end
  begin
     id 21 
     name lhand
     direction 1 -4.4902e-011 -2.07528e-026   
     length 0.640951   
     axis 1.3242e-014 90 90   XYZ
    dof rx rz
    limits (-90.0 90.0)
           (-45.0 45.0)
  end
  begin
     id 22 
     name lfingers
     direction 1 -4.49014e-011 -4.15056e-026   
     length 0.516751   
     axis 2.64841e-014 90 90   XYZ
    dof rx
    limits (0.0 90.0)
  end
  begin
     id 23
     name lthumb
     direction 0.707107 -6.35008e-011 0.707107   
     length 0.741954   
     axis -90 45 2.85299e-015   XYZ
    dof rx rz
    limits (-45.0 45.0)
           (-45.0 45.0)
  end
  begin
     id 24 
     name rclavicle
     direction -0.888531 0.455324 -0.0565039   
     length 3.20126  
     axis 0 0 0   XYZ 
    dof ry rz
    limits (-10.0 20.0)
           (-20.0 0.0)
  end
  begin
     id 25 
     name rhumerus
     direction -1 -4.48946e-011 -8.98298e-028  
     length 5.3519   
     axis 180 30 90   XYZ
    dof rx ry rz
    limits (-90.0 60.0)
           (-90.0 90.0)
           (-90.0 90.0)
  end
  begin
     id 26 
     name rradius
     direction -1 -4.4899e-011 -3.18779e-027   
     length 3.02531   
     axis 180 30 90   XYZ
    dof rx
    limits (-10.0 170.0)
  end
  begin
     id 27 
     name rwrist
     direction -1 -4.4897e-011 -1.03764e-026   
     length 1.51266   
     axis 9.09556e-015 -90 -90   XYZ
    dof ry
    limits (-180.0 0.0)
  end
  begin
     id 28
     name rhand
     direction -1 -4.48941e-011 -2.07528e-026   
     length 0.78389   
     axis 1.3242e-014 -90 -90   XYZ
    dof rx rz
    limits (-90.0 90.0)
           (-45.0 45.0)
  end
  begin
     id 29
     name rfingers
     direction -1 -4.49012e-011 -4.15056e-026   
     length 0.631992   
     axis 2.64841e-014 -90 -90   XYZ
    dof rx
    limits (0.0 90.0)
  end
  begin
     id 30
     name rthumb
     direction -0.707107 -6.3496e-011 0.707107   
     length 0.907418   
     axis -90 -45 -2.85299e-015   XYZ
    dof rx rz
    limits (-45.0 45.0)
           (-45.0 45.0)
  end
:hierarchy
  begin
    root lhipjoint rhipjoint lowerback
    lhipjoint lfemur
    lfemur ltibia
    ltibia lfoot
    lfoot ltoes
    rhipjoint rfemur
    rfemur rtibia
    rtibia rfoot
    rfoot rtoes
    lowerback upperback
    upperback thorax
    thorax lowerneck lclavicle rclavicle
    lowerneck upperneck
    upperneck head
    lclavicle lhumerus
    lhumerus lradius
    lradius lwrist
    lwrist lhand lthumb
    lhand lfingers
    rclavicle rhumerus
    rhumerus rradius
    rradius rwrist
    rwrist rhand rthumb
    rhand rfingers
  end

#!OML:ASF E:\Style3\Style3.ASF
:FULLY-SPECIFIED
:DEGREES
201
root 0.372541 17.8463 0.68798 59.286 91.3732 43.1471
lowerback -12.5886 -1.70241 -0.710492
upperback -10.4667 -1.54025 1.64379
thorax -3.8982 -0.405301 1.96096
lowerneck -10.0078 -3.2339 -7.28147
upperneck 20.4449 -4.84492 9.44527
head 8.38655 -1.81422 3.92646
rclavicle -1.27719e-014 4.77083e-015
rhumerus -44.7785 -22.4965 -63.0609
rradius 10.0653
rwrist 36.9608
rhand -10.5169 19.1112
rfingers 7.12502
rthumb 15.4858 -10.2886
lclavicle -1.27719e-014 4.77083e-015
lhumerus -53.3937 35.6837 51.7147
lradius 10.0231
lwrist -44.0683
lhand -12.9709 14.217
lfingers 7.12502
lthumb 13.1212 43.7842
rfemur -14.9924 12.3083 18.5388
rtibia 14.0539
rfoot -14.2735 -21.7608
rtoes -14.8479
lfemur 0 0 0
ltibia 0
lfoot 0 0
ltoes 0
202
root 0.372851 17.8464 0.686516 60.0769 91.3851 43.9473
lowerback -12.6003 -1.71184 -0.694566
upperback -10.4409 -1.55638 1.6574
thorax -3.86342 -0.415275 1.96428
lowerneck -10.0731 -3.23208 -7.26745
upperneck 20.4542 -4.84494 9.45384
head 8.40168 -1.81098 3.92671
rclavicle 1.78906e-015 1.39149e-015
rhumerus -44.6792 -22.3033 -63.2577
rradius 10.1146
rwrist 36.676
rhand -10.469 19.1208
rfingers 7.12502
rthumb 15.532 -10.2754
lclavicle 1.78906e-015 1.39149e-015
lhumerus -53.3435 35.674 51.7762
lradius 10.0011
lwrist -44.0016
lhand -13.088 14.3199
lfingers 7.12502
lthumb 13.0083 43.8944
rfemur -14.9812 12.2273 18.5721
rtibia 14.0458
rfoot -14.2333 -21.7185
rtoes -14.973
lfemur 0 0 0
ltibia 0
lfoot 0 0
ltoes 0
203
root 0.372978 17.847 0.685618 60.1292 91.3651 43.992
lowerback -12.6222 -1.70498 -0.718915
upperback -10.4276 -1.546 1.65857
thorax -3.83707 -0.409229 1.97954
lowerneck -10.1025 -3.23771 -7.29217
upperneck 20.4556 -4.85222 9.47764
head 8.40947 -1.81346 3.93818
rclavicle 1.33683e-014 -7.7526e-015
rhumerus -44.5382 -21.8816 -63.6751
rradius 10.2211
rwrist 35.97
rhand -10.4272 19.021
rfingers 7.12502
rthumb 15.5722 -10.3721
lclavicle 1.33683e-014 -7.7526e-015
lhumerus -53.1329 35.4918 52.1021
lradius 9.96539
lwrist -43.6559
lhand -13.1324 14.2959
lfingers 7.12502
lthumb 12.9656 43.873
rfemur -14.9824 12.1644 18.5559
rtibia 14.0197
rfoot -14.1803 -21.6962
rtoes -14.8636
lfemur 0 0 0
ltibia 0
lfoot 0 0
ltoes 0
204
root 0.372958 17.8467 0.685301 60.7548 91.3969 44.6069
lowerback -12.6424 -1.69266 -0.674332
upperback -10.4212 -1.53358 1.65422
thorax -3.82106 -0.405842 1.95065
lowerneck -10.0752 -3.24151 -7.27922
upperneck 20.4031 -4.86044 9.48534
head 8.3874 -1.81732 3.93671
rclavicle -4.27387e-015 1.8487e-014
rhumerus -44.4333 -21.5262 -64.0303
rradius 10.3021
rwrist 35.4024
rhand -10.4137 18.9947
rfingers 7.12502
rthumb 15.5852 -10.3974
lclavicle -4.27387e-015 1.8487e-014
lhumerus -52.929 35.2758 52.4085
lradius 9.96473
lwrist -43.2989
lhand -13.2875 14.3777
lfingers 7.12502
lthumb 12.8161 43.9643
rfemur -14.9779 12.1372 18.5943
rtibia 13.9931
rfoot -14.1535 -21.7071
rtoes -14.5668
lfemur 0 0 0
ltibia 0
lfoot 0 0
ltoes 0
205
root 0.373053 17.8464 0.684615 61.4085 91.4272 45.2713
lowerback -12.6375 -1.66221 -0.622246
upperback -10.4062 -1.49955 1.6296
thorax -3.81073 -0.393291 1.89869
lowerneck -10.0936 -3.25831 -7.21483
upperneck 20.3661 -4.88949 9.46565
head 8.37912 -1.8284 3.91476
rclavicle -2.18663e-015 1.59028e-015
rhumerus -44.2258 -20.7574 -64.8058
rradius 10.4614
rwrist 34.134
rhand -10.3963 18.8252
rfingers 7.12502
rthumb 15.602 -10.5655
lclavicle -2.18663e-015 1.59028e-015
lhumerus -52.7051 35.0026 52.7236
lradius 10.0032
lwrist -42.9939
lhand -13.1479 14.5251
lfingers 7.12502
lthumb 12.9506 44.1032
rfemur -14.9582 12.2042 18.6209
rtibia 13.9808
rfoot -14.2471 -21.7126
rtoes -14.2047
lfemur 0 0 0
ltibia 0
lfoot 0 0
ltoes 0
